#!OML:ASF H:\Dans Jumps\Project 1\Capture day 1\Session 1\subject.ASF
:FULLY-SPECIFIED
:DEGREES
619
root 0.37502 17.7821 2.92641 6.99334 -1.44198 -1.21914
lowerback -2.66051 -0.00464275 -0.236044
upperback 2.2661 -0.0449021 1.3919
thorax 3.82609 -0.0492285 1.56388
lowerneck -13.3312 0.104874 -1.93934
upperneck 25.005 0.46377 0.589513
head 10.1585 0.0975823 0.595502
rclavicle 4.82053e-015 -1.2921e-014
rhumerus -25.2078 -15.0909 -81.8874
rradius 23.1267
rwrist 34.7626
rhand -21.5206 -28.6669
rfingers 7.12502
rthumb 4.87171 -58.5909
lclavicle 4.82053e-015 -1.2921e-014
lhumerus -20.4834 2.18036 89.0596
lradius 14.5243
lwrist -0.756586
lhand -25.3179 -6.83962
lfingers 7.12502
lthumb 1.20457 23.1367
rfemur -13.9498 -1.84588 19.4581
rtibia 20.2847
rfoot -11.6839 -0.139288
rtoes 17.7488
lfemur -10.0108 5.90665 -18.1666
ltibia 15.4449
lfoot -8.85112 6.33108
ltoes 2.19096
620
root 0.374586 17.7822 2.92601 6.98896 -1.43905 -1.2221
lowerback -2.67048 -0.0100503 -0.232524
upperback 2.2578 -0.0523071 1.39383
thorax 3.82335 -0.0527979 1.56344
lowerneck -13.3444 0.107969 -1.936
upperneck 24.9852 0.46842 0.586114
head 10.1539 0.099763 0.594256
rclavicle 1.39149e-015 -1.39149e-015
rhumerus -25.2056 -15.1302 -81.8735
rradius 23.1027
rwrist 34.8025
rhand -21.5111 -28.6512
rfingers 7.12502
rthumb 4.88088 -58.575
lclavicle 1.39149e-015 -1.39149e-015
lhumerus -20.4846 2.18267 89.0645
lradius 14.5112
lwrist -0.76812
lhand -25.2949 -6.76097
lfingers 7.12502
lthumb 1.22673 23.2153
rfemur -13.9435 -1.8454 19.4632
rtibia 20.2798
rfoot -11.6811 -0.141991
rtoes 17.7512
lfemur -10.0064 5.90501 -18.1609
ltibia 15.4414
lfoot -8.8472 6.32894
ltoes 2.18421
621
root 0.374173 17.7823 2.92572 6.98506 -1.43644 -1.22502
lowerback -2.68238 -0.0150817 -0.228915
upperback 2.24978 -0.0592184 1.39549
thorax 3.82198 -0.056123 1.56271
lowerneck -13.3552 0.112728 -1.93431
upperneck 24.9654 0.474819 0.586318
head 10.1487 0.103014 0.594773
rclavicle 3.62782e-015 1.25234e-014
rhumerus -25.2056 -15.1671 -81.8602
rradius 23.0826
rwrist 34.8371
rhand -21.4992 -28.6451
rfingers 7.12502
rthumb 4.8923 -58.5686
lclavicle 3.62782e-015 1.25234e-014
lhumerus -20.4875 2.18814 89.0692
lradius 14.4987
lwrist -0.782708
lhand -25.27 -6.68232
lfingers 7.12502
lthumb 1.25076 23.2938
rfemur -13.9369 -1.84735 19.4681
rtibia 20.2733
rfoot -11.6773 -0.141881
rtoes 17.7525
lfemur -10.0035 5.90551 -18.1556
ltibia 15.4399
lfoot -8.84549 6.32539
ltoes 2.18051
622
root 0.373711 17.7824 2.92526 6.9814 -1.43499 -1.23048
lowerback -2.69344 -0.0214132 -0.22505
upperback 2.24764 -0.067943 1.39726
thorax 3.82628 -0.0603973 1.56187
lowerneck -13.3744 0.121566 -1.93535
upperneck 24.944 0.486182 0.592718
head 10.1445 0.109016 0.598576
rclavicle -2.6339e-015 -2.38542e-015
rhumerus -25.1956 -15.1966 -81.8548
rradius 23.0664
rwrist 34.866
rhand -21.4893 -28.638
rfingers 7.12502
rthumb 4.90195 -58.5613
lclavicle -2.6339e-015 -2.38542e-015
lhumerus -20.4803 2.19909 89.0706
lradius 14.4863
lwrist -0.796105
lhand -25.253 -6.62006
lfingers 7.12502
lthumb 1.26725 23.3559
rfemur -13.9313 -1.8447 19.4758
rtibia 20.266
rfoot -11.6719 -0.144633
rtoes 17.7631
lfemur -10.0029 5.90589 -18.1472
ltibia 15.4406
lfoot -8.84425 6.32361
ltoes 2.17604
